HIERARCHY
ROOT Hips
{
     OFFSET 1.88212 96.90440 -13.34250
     CHANNELS 6 Xposition Yposition Zposition Zrotation Xrotation Yrotation
     JOINT Spine
     {
          OFFSET 0.00000 11.89050 0.00000
          CHANNELS 3 Zrotation Xrotation Yrotation
          JOINT Spine1
          {
               OFFSET -0.00000 25.65740 0.12766
               CHANNELS 3 Zrotation Xrotation Yrotation
               JOINT HEad
               {
                    OFFSET 0.00000 8.73416 0.01134
                    CHANNELS 3 Zrotation Xrotation Yrotation
                    End Site
                    {
                         OFFSET -0.29000 12.77420 2.51395
                    }
               }
               JOINT LeftShoulder1
               {
                    OFFSET 8.99000 -0.36225 -0.22000
                    CHANNELS 3 Zrotation Xrotation Yrotation
                    JOINT LeftArm
                    {
                         OFFSET 10.28270 -0.00338 0.32212
                         CHANNELS 3 Zrotation Xrotation Yrotation
                         JOINT LeftForeArm
                         {
                              OFFSET 32.76690 0.09914 -1.42434
                              CHANNELS 3 Zrotation Xrotation Yrotation
                              JOINT LeftHand
                              {
                                   OFFSET 27.56430 0.08536 1.02216
                                   CHANNELS 3 Zrotation Xrotation Yrotation
                                   End Site
                                   {
                                        OFFSET 16.74430 -0.60000 1.50291
                                   }
                              }
                         }
                    }
               }
               JOINT RightShoulder
               {
                    OFFSET -8.99000 -0.36225 -0.22000
                    CHANNELS 3 Zrotation Xrotation Yrotation
                    JOINT RightArm
                    {
                         OFFSET -10.28270 -0.00338 0.32212
                         CHANNELS 3 Zrotation Xrotation Yrotation
                         JOINT RightForeArm
                         {
                              OFFSET -32.89710 0.09914 -1.42434
                              CHANNELS 3 Zrotation Xrotation Yrotation
                              JOINT RightHand
                              {
                                   OFFSET -27.49210 0.08536 1.02216
                                   CHANNELS 3 Zrotation Xrotation Yrotation
                                   End Site
                                   {
                                        OFFSET -16.63120 -0.60000 1.50291
                                   }
                              }
                         }
                    }
               }
          }
     }
     JOINT LeftUpLeg
     {
          OFFSET 8.94580 -8.66707 0.10165
          CHANNELS 3 Zrotation Xrotation Yrotation
          JOINT LeftLeg
          {
               OFFSET 0.00000 -44.42270 1.37270
               CHANNELS 3 Zrotation Xrotation Yrotation
               JOINT LeftFoot
               {
                    OFFSET -0.25355 -42.09240 -1.46059
                    CHANNELS 3 Zrotation Xrotation Yrotation
                    JOINT LeftToes
                    {
                         OFFSET -0.04000 -4.41509 8.49910
                         CHANNELS 3 Zrotation Xrotation Yrotation
                         End Site
                         {
                              OFFSET 0.08000 -0.04745 9.77979
                         }
                    }
               }
          }
     }
     JOINT RightUpLeg
     {
          OFFSET -8.94580 -8.66707 0.10165
          CHANNELS 3 Zrotation Xrotation Yrotation
          JOINT RightLeg
          {
               OFFSET 0.00000 -44.42270 1.37270
               CHANNELS 3 Zrotation Xrotation Yrotation
               JOINT RightFoot
               {
                    OFFSET 0.25355 -42.09240 -1.46059
                    CHANNELS 3 Zrotation Xrotation Yrotation
                    JOINT RightToes
                    {
                         OFFSET 0.04000 -4.41509 8.49910
                         CHANNELS 3 Zrotation Xrotation Yrotation
                         End Site
                         {
                              OFFSET -0.08000 -0.13745 9.77979
                         }
                    }
               }
          }
     }
}
MOTION
Frames: 10
Frame Time: 0.01667
-155.24736 91.83467 87.38501 11.25400 -9.41047 50.08454 -6.72507 25.87468 -0.20647 0.00380 -0.00065 -0.00162 -7.17553 15.19127 11.31266 0.13658 7.61891 0.74107 -139.01256 -60.51584 -110.19000 -15.72661 62.69725 -97.79163 16.25302 5.09122 -7.77706 18.24188 6.33469 -4.32716 84.79060 -0.77752 71.59043 -15.09569 23.59085 112.12713 15.73220 12.41920 2.24542 13.45167 -3.25444 -14.19516 -25.45531 12.45154 57.21360 -4.10496 0.00188 0.00472 6.60529 -17.97643 -64.43588 -30.98614 9.30572 21.27188 48.76675 15.95764 -43.30853 -28.06802 0.00644 0.06081 7.00996 -30.17926 12.10625 
-154.86655 92.55913 87.12399 11.15302 -9.62387 50.03369 -6.17811 25.74161 -0.34602 0.00512 -0.00172 -0.00109 -6.39023 14.85545 10.42604 -0.07327 7.45914 1.12796 -136.56390 -59.28438 -110.36655 -24.15815 63.06635 -90.05424 15.55977 -0.06576 -13.12074 17.25305 4.83786 -7.39735 84.51420 -1.10622 69.09847 -13.28383 21.43933 111.36553 18.67624 13.53524 -4.63005 12.93473 -3.18275 -14.00765 -24.73114 12.14873 55.99746 -4.00068 0.00385 0.00528 4.47447 -15.22541 -72.77481 -30.61960 8.61408 21.15928 51.04777 20.15457 -44.04900 -26.14270 -0.01132 0.07410 9.64643 -25.60918 16.48943 
-154.55728 93.17962 86.89764 11.05577 -9.78901 50.06606 -5.60851 25.46383 -0.44039 0.00457 -0.00287 -0.00033 -5.29218 14.49879 8.97338 -0.55454 7.30437 1.79886 -134.21194 -57.74233 -111.69794 -37.40627 62.63223 -78.48628 15.19903 -4.56311 -19.98670 12.53065 3.35284 -8.26816 86.58511 -4.76934 65.22591 -10.65051 18.18645 110.13583 22.68476 14.55038 -12.11918 12.21324 -3.17996 -13.68952 -23.46118 12.01943 54.00188 -4.01105 0.00317 0.00576 2.18514 -10.90315 -82.17654 -30.26038 7.98768 20.99558 53.84724 24.92446 -44.33054 -24.49958 -0.02469 0.07395 13.40421 -21.88031 22.80127 
-154.31181 93.74293 86.70992 10.95987 -9.79699 50.38931 -5.28771 24.93300 1.03249 -0.02258 0.00802 0.10118 -2.53403 13.79549 4.21054 -3.69064 2.90839 12.34488 -118.82529 -50.02094 -102.45013 -54.59275 59.63971 -62.75843 18.69925 3.75215 -15.13677 1.78547 2.72368 -1.47104 90.73961 -19.82203 59.90685 -6.88204 11.70589 106.53403 29.61587 15.38769 -19.46424 10.62710 -3.65499 -12.89763 -20.65915 11.85692 49.62358 -3.81809 0.01422 0.01136 3.47964 -10.01222 -76.09707 -29.88734 7.52004 20.66366 57.21009 30.86796 -42.12719 -23.79222 0.01364 0.08393 10.94135 -30.45299 15.31351 
-154.12706 94.27470 86.59296 10.89307 -9.67197 50.97116 -5.21323 24.22644 3.86302 -0.02677 0.01580 0.09337 1.28602 12.26509 -3.15942 -3.80561 3.56137 9.91702 -120.21603 -49.32254 -107.56707 -64.21828 56.64569 -54.67228 18.60136 1.50675 -19.31038 -7.15612 1.95598 5.54266 88.73086 -35.73573 52.62009 -3.78499 3.98411 99.86477 36.95479 16.21710 -20.67569 9.10057 -3.87522 -12.35649 -17.60025 10.82338 43.77879 -3.43213 0.02317 0.00625 2.96512 -6.48776 -75.21843 -29.11607 7.92701 20.97797 59.66744 35.05969 -40.10532 -21.97472 -0.03817 0.10605 9.62910 -33.54541 12.63479 
-153.99644 94.73862 86.54401 10.85884 -9.44498 51.72821 -5.36243 23.42707 7.85255 -0.03048 0.02932 0.08494 5.46996 9.36518 -12.65401 -3.48177 4.42068 6.52782 -121.11420 -48.71297 -110.49704 -69.79913 54.42801 -50.63930 20.59299 6.19494 -17.09489 -7.53830 3.05635 2.16579 76.28349 -38.81454 45.56549 -4.61214 -2.13560 90.85711 46.97421 18.94480 -16.82184 7.65915 -3.72117 -12.02254 -14.71656 8.88736 37.04921 -2.67069 0.04341 -0.00443 2.82075 -3.82209 -70.12224 -28.34527 8.29144 21.11210 60.41773 37.22242 -38.54109 -20.91287 -0.04504 -0.01068 7.45618 -37.14207 8.79427 
-153.91946 95.20546 86.52912 10.86637 -9.17272 52.55796 -5.80780 23.01915 12.60233 -0.02414 0.03411 0.06827 8.81246 5.51267 -22.16687 -2.59500 4.94324 2.28647 -121.96765 -48.32343 -112.21706 -73.09000 52.94186 -48.84437 20.15250 4.61984 -19.89807 -13.90206 3.03137 8.06946 67.03796 -46.57170 34.09193 -8.91516 -4.49262 82.27883 47.08398 22.49685 5.25827 6.32949 -3.30268 -11.83242 -12.20248 7.74995 31.25207 -2.42419 0.00926 -0.00615 1.76738 -1.82883 -67.32092 -27.59278 8.65490 21.13799 60.18092 38.04789 -37.47329 -19.74479 -0.02392 -0.01642 6.45739 -38.30423 7.58872 
-153.88802 95.63343 86.53777 10.92474 -8.91529 53.36351 -6.13334 22.62783 16.62823 0.00118 -0.00078 -0.03874 10.82785 1.68949 -30.30039 -1.75661 5.50343 -1.21657 -122.67265 -47.99404 -113.12726 -74.98611 51.97303 -48.27503 20.76170 7.01040 -18.81583 -13.29398 4.38021 3.99377 57.26171 -41.91903 31.15713 -12.65828 -3.27403 77.15749 44.61263 23.25624 16.16303 5.12313 -2.77947 -11.71686 -9.99104 7.02897 26.39326 -2.32042 0.00289 -0.00494 0.70523 -0.84517 -64.35371 -26.89171 9.05904 21.12811 59.41238 38.05098 -36.93267 -18.87822 -0.00080 -0.01725 5.51922 -39.21800 6.65805 
-153.88824 96.01301 86.57610 11.03885 -8.71886 54.07995 -6.15841 21.92038 19.71817 0.00297 -0.00175 -0.04622 11.79652 -1.44564 -37.24060 -1.02200 6.46169 -4.01522 -123.24589 -47.63428 -113.54025 -75.98062 51.37062 -48.40757 19.96296 5.82415 -20.61530 -19.92461 5.02293 11.33550 52.70521 -44.32278 23.94059 -14.13002 -1.46485 76.61446 36.71041 20.64510 31.14931 4.04776 -2.28371 -11.62085 -8.09000 6.56437 22.44295 -2.16711 0.00496 -0.00521 -0.56119 -0.22655 -62.33760 -26.26594 9.54913 21.13231 58.40233 37.56967 -36.86654 -18.08612 0.01113 -0.01450 5.25855 -39.39354 7.03503 
-153.91437 96.35978 86.66840 11.19747 -8.59989 54.68254 -5.95790 21.06943 21.96569 0.00364 0.00495 -0.03674 12.02073 -3.84717 -43.02055 -0.52354 7.71485 -5.86302 -123.53547 -47.08549 -113.51814 -76.47427 51.01994 -48.83292 19.83504 6.99571 -19.98073 -19.88924 6.84442 8.75480 48.51200 -38.84151 27.56392 -13.20577 -1.34328 76.51489 38.57196 22.92867 31.51668 3.11638 -1.90594 -11.51554 -6.49982 6.31006 19.33463 -1.89653 0.00764 -0.00533 -1.79581 0.08916 -60.64960 -25.78759 10.21432 21.17442 56.72220 35.09306 -38.00592 -18.17224 0.02217 0.00467 6.61086 -38.16591 9.95114 
